<svg version="1.1" id="Layer_1" xmlns="http://www.w3.org/2000/svg" xmlns:xlink="http://www.w3.org/1999/xlink" x="0px" y="0px"
	 width="100%" viewBox="0 0 1024 704" enable-background="new 0 0 1024 704" xml:space="preserve">
<path fill="#000000" opacity="1.000000" stroke="none" 
	d="
M771.468628,705.000000 
	C783.692932,693.017761 798.931335,685.783508 815.677673,681.703186 
	C828.923523,678.475830 842.453308,676.372131 855.625977,672.894531 
	C887.229370,664.551086 912.417603,646.822388 931.867126,620.432739 
	C947.426575,599.321167 957.859680,576.445801 960.574036,550.151794 
	C963.423523,522.549561 955.086426,498.747650 937.880737,477.340271 
	C916.901550,451.237946 889.180969,437.705353 856.842834,432.370087 
	C837.808472,429.229645 818.764160,428.404327 799.834167,433.273743 
	C790.277527,435.732025 781.155701,439.258057 772.602722,444.225281 
	C770.597900,445.389587 769.559692,447.129852 768.682800,449.188782 
	C760.336731,468.785248 751.592346,488.211670 744.078979,508.160492 
	C742.018311,513.631775 740.900635,519.300537 739.514343,525.039734 
	C748.282471,503.867798 763.138550,487.570435 779.745178,472.809204 
	C781.533508,473.660919 781.940430,474.809998 781.657410,475.977142 
	C778.327026,489.709961 779.290161,504.457581 773.343140,517.459290 
	C765.100952,535.479004 755.665588,552.937500 740.707336,566.600708 
	C733.150574,573.503235 732.826782,573.399597 723.952087,568.420471 
	C706.745728,558.766785 698.855042,543.608765 696.669128,524.506836 
	C695.042969,510.295837 695.311768,496.264069 698.130554,482.289368 
	C698.741516,479.260284 698.378357,476.965424 695.074707,476.907074 
	C679.728516,476.635986 669.987427,466.914551 660.182312,456.962585 
	C653.452087,450.131622 647.091797,449.561462 637.897400,454.254089 
	C639.047058,459.818359 642.920288,463.833374 646.228760,468.101654 
	C648.976135,471.645966 652.140137,474.867523 655.122437,478.229584 
	C661.636414,485.573059 659.728394,491.396332 650.099304,494.330994 
	C643.024414,496.487305 636.491272,500.496124 628.460632,500.094727 
	C631.906921,502.652069 634.583862,505.249756 636.218567,508.794861 
	C636.942627,510.365173 638.324585,510.847626 639.943176,510.732117 
	C642.593628,510.542908 645.243469,510.337433 647.888977,510.089691 
	C655.015076,509.422302 657.766418,512.381531 656.837646,519.361938 
	C656.026062,525.460938 655.272217,531.572327 655.290344,537.758545 
	C655.305664,542.992554 653.472839,548.015808 655.867432,553.510315 
	C657.604248,557.495300 654.939941,559.916687 650.358582,560.140625 
	C643.247864,560.488098 636.573914,557.979004 629.776489,556.555420 
	C621.231323,554.765686 612.847351,553.623352 604.085449,554.804016 
	C596.158813,555.872131 588.182190,555.174988 580.278076,553.721008 
	C574.507324,552.659546 568.501770,552.728027 562.859863,553.593994 
	C552.448730,555.192017 541.967407,555.101929 531.543457,556.067627 
	C513.699707,557.720642 495.831299,559.191650 477.883514,559.493042 
	C456.156891,559.857788 434.453278,560.934753 412.763977,562.282471 
	C401.390045,562.989197 401.444763,562.916199 397.841705,552.337708 
	C395.911438,546.670532 393.783722,541.068970 391.661957,535.469238 
	C390.534576,532.493774 391.248505,530.172791 393.976196,528.665955 
	C397.033112,526.977173 400.149780,524.346436 403.349396,524.176453 
	C410.915710,523.774414 412.940216,518.198303 416.197510,512.896057 
	C413.326752,511.831848 411.019073,513.621277 408.601013,513.306824 
	C405.400818,512.890625 403.571503,512.086731 405.134369,508.177887 
	C406.567078,504.594360 408.028198,502.414764 412.406097,501.289215 
	C422.195160,498.772400 432.062286,496.263275 441.437622,492.274719 
	C446.267395,490.219940 451.497253,489.936859 456.631378,489.861755 
	C473.877991,489.609467 491.178925,487.973419 508.316376,491.439056 
	C509.294800,491.636932 510.285767,491.708130 511.186981,491.047791 
	C517.605103,486.345154 516.413696,474.193420 509.006989,471.242920 
	C488.771515,463.181885 467.916901,459.163147 446.006958,461.805115 
	C440.418396,462.479004 434.692749,462.109589 429.032379,462.038666 
	C427.275696,462.016663 424.802429,461.761383 425.265717,459.231842 
	C425.632904,457.227234 427.568726,457.640656 429.372528,458.005676 
	C434.252594,458.993042 438.901794,457.091949 443.555878,456.145905 
	C457.916931,453.226593 472.251587,452.194580 486.623199,455.682312 
	C493.722626,457.405243 500.745087,459.456024 507.767883,461.478241 
	C510.317108,462.212341 512.782715,463.205933 514.983887,464.817108 
	C519.489685,468.115295 524.468872,467.227844 527.506592,462.464142 
	C529.609619,459.166138 532.938232,458.269043 536.155212,458.706207 
	C540.594177,459.309448 544.347961,458.447968 548.470459,456.838043 
	C555.830505,453.963898 563.684814,453.863098 571.588562,454.222961 
	C585.886963,454.873993 600.232483,454.961639 613.953003,459.794434 
	C619.131958,461.618652 624.214905,463.716370 629.333496,465.710327 
	C630.718994,466.250000 632.038818,467.074249 633.977844,466.305573 
	C634.133667,462.581726 631.892700,459.604401 630.223450,456.539093 
	C620.336182,438.382843 615.345642,418.863403 613.786194,398.374023 
	C613.407288,393.395782 613.242004,388.401154 612.988892,383.413544 
	C612.794495,379.581879 611.180969,378.213318 607.136414,379.089325 
	C595.271423,381.658997 583.354980,384.009674 571.410339,386.179779 
	C568.698303,386.672485 568.428345,388.071747 568.171753,390.233704 
	C567.344543,397.205322 565.899597,404.088623 562.835754,410.427124 
	C554.066833,428.568359 537.901550,435.575226 519.309021,437.984467 
	C502.041321,440.222015 489.788757,430.526886 479.342743,418.568695 
	C473.572571,411.963196 469.162842,404.172424 464.101074,396.943085 
	C462.561584,394.744324 463.017487,392.134827 462.429596,389.534943 
	C456.786072,388.371246 451.278534,390.431915 445.673767,390.364166 
	C440.198730,390.297974 434.718628,391.059418 429.234741,391.176300 
	C425.708618,391.251434 425.242706,393.003143 425.427948,396.003937 
	C426.584167,414.735077 425.266968,433.184937 418.908783,451.048065 
	C416.752777,457.105255 412.513397,461.842438 409.300079,467.322449 
	C409.106171,462.906677 411.363861,459.057251 411.009247,454.656769 
	C410.799164,452.049530 410.335785,450.845825 407.680908,450.206390 
	C404.178680,449.362854 400.454285,448.615906 398.365692,445.028259 
	C397.687286,443.862946 396.740875,442.792999 397.525787,441.383362 
	C398.317383,439.961792 399.691223,440.117889 401.057495,440.276306 
	C405.444397,440.785126 410.633575,443.939972 414.027222,440.837311 
	C417.911407,437.286255 417.880341,431.046478 418.486877,425.855621 
	C419.779968,414.789032 420.885925,403.663544 420.643280,392.492218 
	C420.567047,388.982452 421.841217,387.301117 425.274506,386.791412 
	C431.357880,385.888306 437.398590,384.696289 443.483521,383.805359 
	C445.763458,383.471527 448.330048,384.033417 449.387543,381.187012 
	C450.460449,378.299255 451.125122,375.341797 448.928253,372.658783 
	C447.667542,371.119110 446.247192,369.696869 444.800934,368.324860 
	C440.243622,364.001556 438.985382,358.911072 440.632721,352.847351 
	C441.955139,347.979523 443.893921,343.423126 446.370697,339.064209 
	C448.043060,336.120941 447.742615,333.131897 444.744263,331.751678 
	C432.802399,326.254700 434.212769,315.566467 434.320374,305.522461 
	C434.407623,297.373077 438.812042,290.631958 442.761444,283.890045 
	C444.909637,280.222961 445.314453,276.606812 444.542633,272.522491 
	C432.321106,288.550659 427.815125,307.536072 422.277039,326.327698 
	C409.490051,318.413635 405.445404,305.914825 399.404144,294.051575 
	C402.552826,293.856934 403.100586,295.760498 404.072052,296.924042 
	C408.207092,301.876770 413.734375,303.796265 419.866425,304.509644 
	C421.665802,304.718964 423.191986,304.396454 423.845703,302.388580 
	C425.126007,298.456146 427.672913,294.968689 427.883911,290.655334 
	C428.081604,286.613922 430.892639,284.127014 433.470856,281.517029 
	C440.205566,274.699158 440.069733,271.637695 436.408630,263.193787 
	C431.730804,252.404831 432.750031,241.642914 440.494843,232.269669 
	C443.896851,228.152390 446.012329,223.944443 446.249084,218.408157 
	C446.557495,211.195374 452.445404,208.140930 458.115051,205.675781 
	C463.110474,203.503784 467.789093,200.493393 473.365723,199.648331 
	C476.356262,199.195160 475.984497,196.520645 475.733551,194.418488 
	C475.221313,190.128067 474.160004,185.884567 473.905731,181.587372 
	C473.667480,177.560501 475.372192,173.518829 472.718506,169.534256 
	C471.584351,167.831284 473.185455,165.611725 474.714539,164.297409 
	C476.487671,162.773315 477.661774,164.665192 479.011322,165.492020 
	C485.635040,169.550186 493.081604,172.181488 498.954224,178.019073 
	C502.905579,172.728134 504.720245,167.360931 506.713013,162.115051 
	C508.508148,157.389420 510.703033,152.981018 514.326050,149.352432 
	C517.585999,146.087479 519.125183,146.289200 521.406433,150.407410 
	C524.034180,155.151230 524.611816,160.537476 526.241394,165.593201 
	C527.102173,168.263962 527.604065,171.091934 529.940002,173.559723 
	C535.231201,171.013321 538.987793,166.496735 543.401184,162.848083 
	C544.650024,161.815628 545.718750,160.032120 547.581482,160.632477 
	C549.590088,161.279861 549.931580,163.405212 550.125183,165.179474 
	C551.204285,175.070084 552.401062,184.967712 550.927612,195.207520 
	C560.433228,197.672562 569.696716,200.770370 577.379822,207.133011 
	C583.531555,212.227478 588.443726,218.213562 589.552612,226.530273 
	C589.595947,226.855286 589.714111,227.181107 589.852600,227.481110 
	C597.033691,243.038605 595.833862,260.002136 598.011841,276.392914 
	C598.997925,283.814240 599.598816,291.286591 600.384460,298.734741 
	C600.708801,301.809235 601.387695,304.567505 599.075989,307.664062 
	C596.629517,310.941193 602.264099,316.735535 607.612549,316.541412 
	C612.130737,316.377411 616.583679,316.490875 620.960938,317.720734 
	C622.938599,318.276367 624.740051,319.030365 625.191650,320.808441 
	C621.507568,328.145477 615.326599,328.412109 608.475708,328.198853 
	C600.862976,327.961853 596.663696,323.838440 593.766602,316.642426 
	C591.174988,322.486694 589.822083,326.619324 594.427063,331.810638 
	C600.390503,338.533295 604.179382,346.813324 605.027405,356.125488 
	C605.309326,359.220917 604.310913,362.048523 603.931702,364.999908 
	C603.725098,366.608124 602.756226,368.150238 603.874329,370.103790 
	C606.636780,370.994202 609.143005,369.163086 611.820435,368.691711 
	C615.144897,368.106445 616.926514,369.060974 616.903442,372.733734 
	C616.879395,376.563416 617.227844,380.395386 617.206848,384.225220 
	C617.187439,387.750641 618.510254,388.981323 622.124390,388.277008 
	C629.759399,386.789093 631.649109,387.820251 632.283875,395.474426 
	C632.951355,403.523895 637.852905,409.646362 640.503540,416.762848 
	C641.492188,419.417145 642.748230,421.963959 643.058289,424.828308 
	C643.813110,431.800598 648.391357,435.637817 654.260010,438.365204 
	C655.456360,438.921173 656.895325,439.015991 658.007812,439.682007 
	C664.742126,443.713623 668.010925,439.697723 669.348328,434.136566 
	C671.921448,423.437317 670.396362,412.988983 662.528503,404.744293 
	C651.810242,393.512695 645.289062,380.484924 642.785095,365.208832 
	C642.122192,361.164398 640.208191,357.328613 638.912292,353.382660 
	C638.395020,351.807678 637.773499,350.219055 638.152710,348.506012 
	C638.503906,346.919037 639.399292,345.786682 641.059692,345.439667 
	C642.716309,345.093384 643.422546,346.150452 644.059631,347.440094 
	C645.606384,350.571472 647.528687,353.551117 648.767273,356.795166 
	C654.277954,371.227844 664.750793,382.014343 675.559509,392.294861 
	C679.970215,396.490021 687.037170,396.748230 693.047363,397.391510 
	C706.010376,398.778992 718.975098,398.409576 731.641174,394.453644 
	C735.386536,393.283844 737.236084,391.544250 736.908936,387.389130 
	C736.704346,384.791107 737.249146,382.078552 737.791016,379.487122 
	C739.876465,369.513336 748.422241,366.393890 756.591797,372.603790 
	C758.389709,373.970428 759.969727,375.623779 762.289368,377.723816 
	C761.722168,353.316589 747.188660,333.014771 746.658142,308.371216 
	C739.572266,316.649719 733.276489,324.083954 726.890686,331.439972 
	C722.084412,336.976349 720.765747,336.905579 716.032837,331.451843 
	C714.022766,329.135681 712.331421,326.467346 711.725403,323.629913 
	C708.758423,309.737732 702.581848,296.483215 703.611511,281.771576 
	C704.015076,276.005402 706.252563,271.031097 709.437622,266.596100 
	C713.755005,260.584503 723.171875,261.586884 727.261902,268.003754 
	C729.845154,272.056641 730.782104,276.856598 733.179199,281.870056 
	C737.775330,277.457642 743.018005,275.342926 747.681335,272.457367 
	C751.601990,270.031342 751.942688,263.807892 755.169373,259.973053 
	C744.031250,253.447723 743.256470,250.103897 750.169739,240.322723 
	C745.015930,229.713974 745.290588,227.521149 752.000305,225.881210 
	C752.952026,227.072113 751.836792,227.775085 751.227539,228.362717 
	C748.635681,230.862518 749.107361,233.245087 751.788879,234.999329 
	C756.135620,237.842896 756.264038,240.742599 752.702393,244.264755 
	C751.138123,245.811676 749.635071,247.733429 750.498108,250.012619 
	C751.398987,252.391617 754.003174,252.562286 756.072937,252.496475 
	C761.228088,252.332520 763.817139,254.532288 764.041931,259.718658 
	C764.148621,262.179565 765.087585,264.430115 767.784912,265.017975 
	C770.377258,265.583008 772.525269,264.171234 773.682190,262.102356 
	C776.266907,257.480194 779.168884,254.467346 785.146484,256.385651 
	C787.425293,257.116943 789.532593,255.279739 790.911804,253.187439 
	C792.475891,250.814651 790.595276,249.669785 789.309143,248.134827 
	C787.130005,245.534210 787.666687,242.946075 789.812683,240.499054 
	C791.235352,238.876709 792.585754,237.186188 793.890869,235.467285 
	C794.694214,234.409271 795.558899,233.221756 794.715088,231.830856 
	C793.837769,230.384903 792.328674,230.162842 790.770081,230.174500 
	C788.111389,230.194397 786.038269,231.694977 783.926270,232.987259 
	C780.822754,234.886200 778.838928,233.969559 779.111450,230.515320 
	C779.438782,226.366135 779.090088,223.231461 774.296875,222.250656 
	C767.999512,220.962097 765.424072,222.024338 762.370850,227.342682 
	C762.071594,227.863892 761.550964,228.257965 761.083252,228.765076 
	C757.644531,226.857605 759.214539,224.323090 760.024719,222.187424 
	C761.643799,217.919342 764.973145,215.307068 769.460938,215.062805 
	C776.497620,214.679794 781.910828,217.261536 783.319458,225.131226 
	C784.680481,224.710815 785.512512,224.587982 786.211792,224.215805 
	C790.441772,221.964447 794.235352,222.399353 797.506836,225.992935 
	C799.944153,228.670242 800.360474,235.186584 797.845642,238.684875 
	C795.557861,241.867279 794.692749,244.591858 795.898682,248.717194 
	C797.925293,255.649750 791.351074,263.326385 784.078491,263.258453 
	C781.295227,263.232483 779.036011,263.393219 777.027710,265.835022 
	C769.670715,274.779724 767.235413,274.741333 759.138000,265.373718 
	C756.862915,271.026123 754.195923,275.953766 754.965332,282.040375 
	C755.546387,286.637115 755.972412,291.180237 754.667297,295.889343 
	C753.520325,300.027863 753.913879,304.481323 755.065063,308.725586 
	C760.157288,327.499084 767.503174,345.632721 771.002380,364.860443 
	C771.209778,365.999878 771.542542,367.151184 772.904419,367.971893 
	C776.366150,367.005737 778.234192,363.872314 780.468994,361.339325 
	C789.066101,351.594849 797.543030,341.743652 806.015137,331.889648 
	C829.230896,304.886993 857.735962,287.179138 893.423035,282.080719 
	C916.404907,278.797333 938.942688,281.504242 961.079773,287.755920 
	C984.014526,294.232849 1005.568359,303.738953 1024.695801,318.861053 
	C1025.000000,447.578674 1025.000000,576.157349 1025.000000,705.000000 
	C940.645935,705.000000 856.291626,705.000000 771.468628,705.000000 
M552.179871,329.853821 
	C555.001465,325.142914 557.877380,320.563263 562.058350,316.777222 
	C565.273071,313.866119 567.342712,309.750946 567.692810,305.374878 
	C568.030457,301.156342 567.948486,297.132751 571.813538,294.227051 
	C573.058594,293.291046 572.791260,291.493317 572.372742,289.985352 
	C571.920593,288.356415 571.442627,286.560181 572.336426,285.099091 
	C577.199951,277.148590 576.622437,268.132477 577.195862,259.450439 
	C577.766663,250.808533 575.858826,242.420822 567.596558,237.846298 
	C553.385803,229.978348 537.667969,227.124252 521.672485,225.638916 
	C521.042786,225.580429 520.383972,225.985077 519.728027,226.035553 
	C509.958801,226.787216 500.237793,227.990265 490.736115,230.372711 
	C485.946838,231.573578 480.267334,230.172974 476.884155,235.918732 
	C472.757812,242.926620 467.580811,249.309891 463.324402,256.249268 
	C460.471008,260.901276 459.191589,266.069977 458.548889,271.740326 
	C457.452972,281.408783 459.012146,291.464966 454.915192,300.755676 
	C453.912384,303.029755 455.604645,303.843445 457.225372,304.301758 
	C462.207245,305.710632 463.317596,309.371033 463.310883,313.931671 
	C463.307037,316.542786 462.466614,319.484894 464.456940,321.645874 
	C468.170258,325.677673 471.325409,330.235748 475.774414,333.589203 
	C485.248291,340.730225 495.572998,346.384125 506.313049,351.341675 
	C509.075378,352.616730 511.738617,354.272369 512.967773,357.123444 
	C514.141235,359.845337 516.359985,360.379700 518.636108,360.313538 
	C529.568848,359.995789 538.654724,356.327606 544.644836,346.381409 
	C547.689697,341.325562 549.454590,335.809265 552.179871,329.853821 
M617.258972,543.669434 
	C626.467102,545.532166 635.675171,547.394897 645.355896,549.353271 
	C646.799011,539.883362 648.861938,530.963501 649.546814,521.293457 
	C630.412598,522.714233 612.014709,521.887878 593.584229,523.162842 
	C571.877441,524.664429 550.155334,526.370605 528.360291,526.969910 
	C508.291840,527.521606 488.260468,529.263611 468.151886,529.548767 
	C446.524689,529.855530 424.929199,531.659668 403.275055,531.265686 
	C401.891205,531.240540 400.252075,530.653564 398.635345,532.915833 
	C402.322693,538.226868 404.409332,544.674561 407.230255,550.801392 
	C408.037933,552.555664 409.657990,553.551453 411.718170,553.392700 
	C416.851990,552.997009 421.976135,552.432434 427.116150,552.167908 
	C443.072693,551.346741 458.776184,548.009338 474.773071,547.535522 
	C483.891022,547.265442 492.960480,547.288391 502.093475,547.685303 
	C510.303436,548.041992 518.603638,546.125183 526.874695,545.320374 
	C539.283142,544.112854 551.717896,543.446289 564.194580,543.434631 
	C572.350769,543.427063 580.485474,543.671936 588.545837,544.876343 
	C597.904785,546.274841 607.031677,543.340881 617.258972,543.669434 
M540.024902,361.220306 
	C531.504211,363.454437 523.158630,367.129303 514.268799,363.634308 
	C512.879517,366.587952 513.367737,368.891876 513.676208,371.169952 
	C514.345764,376.114624 515.168640,381.041473 515.704956,385.999847 
	C515.945007,388.219116 516.283203,390.768555 512.819397,391.192474 
	C503.428986,392.341766 493.998138,392.766724 484.554321,393.175507 
	C480.550659,393.348785 476.296967,393.216858 472.492065,395.821106 
	C479.851837,411.499176 490.811707,423.254547 506.748810,429.326538 
	C517.073486,433.260223 527.381226,430.153717 537.331360,426.275604 
	C551.946594,420.579315 560.361877,409.949371 563.324890,394.661194 
	C563.917969,391.601013 563.006592,390.442413 560.120300,389.872192 
	C555.315674,388.923004 550.472961,389.155853 545.691528,389.442749 
	C541.216858,389.711273 539.539917,387.910217 539.646667,383.739899 
	C539.834106,376.418488 540.001099,369.096588 540.024902,361.220306 
M618.800354,468.884583 
	C603.336487,466.617279 587.786438,465.905762 572.170715,466.158112 
	C565.350098,466.268341 558.541565,466.068085 551.982056,468.528015 
	C549.483398,469.465057 547.938599,470.729309 548.392029,473.601044 
	C549.349792,479.666443 550.357849,485.724854 551.217590,491.804169 
	C551.539734,494.082092 552.679749,494.965759 554.882507,494.864563 
	C565.998474,494.353699 577.152527,494.273834 588.222412,493.265686 
	C599.938721,492.198608 611.537292,489.620605 623.260071,488.920135 
	C631.157837,488.448212 639.269531,484.320496 647.331360,489.546051 
	C648.506470,486.100250 647.064880,483.043884 646.093689,480.757599 
	C644.625061,477.300476 642.363525,472.799469 638.220276,472.456238 
	C631.853027,471.928802 625.914917,469.658722 618.800354,468.884583 
M498.289764,500.180695 
	C480.848938,498.908112 463.416077,498.499512 445.964355,500.151245 
	C437.145630,500.985901 424.493835,511.803253 422.018036,521.038086 
	C423.470154,522.267761 425.218811,521.713684 426.791687,521.623413 
	C454.861298,520.012451 482.927643,518.344177 510.992371,516.649780 
	C513.132874,516.520508 515.279114,516.706665 517.423035,516.022949 
	C519.258301,515.437683 520.299255,514.463196 520.567688,512.627197 
	C520.845093,510.729767 520.750061,508.904633 518.882019,507.772339 
	C512.775818,504.071198 506.773560,500.081482 498.289764,500.180695 
M452.774170,290.250549 
	C452.724945,288.516174 453.260834,286.721649 452.196747,284.734436 
	C450.041779,287.968933 448.245483,291.136017 446.273987,294.159546 
	C441.711639,301.156372 439.462463,308.875824 440.864594,317.411133 
	C441.166351,319.248047 441.420624,320.315826 443.510437,320.878906 
	C455.059082,323.990265 458.909821,334.475281 452.403107,344.692108 
	C450.349518,347.916626 448.255951,351.117737 446.287781,354.393890 
	C445.074371,356.413666 444.699951,358.682129 446.864410,360.228668 
	C454.057861,365.368622 456.020111,372.532867 455.259888,380.858429 
	C455.034393,383.327728 456.370972,384.231140 458.627411,384.918793 
	C462.573242,386.121307 466.535461,385.651489 470.505554,385.785004 
	C474.411896,385.916321 477.512451,385.645966 478.731537,380.743835 
	C480.737579,372.677002 480.455719,369.218872 476.231964,366.309296 
	C467.794983,360.497406 467.100067,356.748566 473.165985,348.470764 
	C474.735504,346.328979 474.756836,344.771027 473.566132,342.219116 
	C471.054169,336.835480 467.475983,332.447418 463.488312,328.179077 
	C460.458557,324.936066 457.361176,321.551880 457.704865,316.472107 
	C457.867889,314.062256 455.867584,313.186432 454.015015,312.292847 
	C447.289307,309.048523 445.626099,302.872650 449.861176,296.720276 
	C451.087158,294.939331 452.625641,293.362762 452.774170,290.250549 
M716.171692,319.371674 
	C717.457703,321.858215 718.516541,324.547424 722.368347,325.756561 
	C730.046265,316.321533 737.938293,306.723846 745.691284,297.015045 
	C747.334717,294.957001 748.567932,292.545349 749.813843,290.202850 
	C751.173950,287.645599 750.347900,285.246216 748.474121,283.375732 
	C746.503113,281.408173 744.388428,282.717407 742.548950,283.829865 
	C738.888977,286.043304 736.283264,289.207916 734.481201,293.104767 
	C733.694519,294.805908 733.584290,297.121033 730.969055,297.710175 
	C728.519775,296.379883 728.723877,293.977356 728.670654,291.677277 
	C728.534058,285.775818 727.228455,280.096283 724.765686,274.779724 
	C722.003418,268.816742 715.299744,267.528503 711.995361,272.352417 
	C709.870300,275.454712 707.831787,278.912231 708.158325,282.969238 
	C709.144104,295.215271 709.737610,307.559082 716.171692,319.371674 
M577.403076,379.891052 
	C579.268066,379.253632 580.530151,378.147980 580.814697,376.041687 
	C581.377136,371.878387 582.991455,368.040497 584.654175,364.223267 
	C586.942078,358.970886 586.891235,354.363129 582.813232,349.532043 
	C576.950012,342.586090 572.603394,334.717621 573.694824,324.997681 
	C573.798645,324.073334 573.806519,322.909424 571.773865,322.657623 
	C568.624268,327.477783 564.482239,331.769958 562.818115,338.037323 
	C559.405884,350.888031 559.505188,363.996155 558.821594,377.070618 
	C558.714478,379.118469 559.855042,379.910461 561.468262,380.760101 
	C566.701538,383.516357 571.710876,382.774597 577.403076,379.891052 
M717.824707,556.625549 
	C719.552002,557.764893 721.089355,559.300903 723.920166,559.630920 
	C721.889282,543.852783 715.062378,529.702271 713.129089,514.247131 
	C711.233643,499.094299 710.787720,483.939728 710.237549,468.578400 
	C705.367310,473.328735 702.499939,478.824371 701.285278,485.032349 
	C698.476990,499.385376 698.490112,513.628357 701.635315,528.090393 
	C704.069092,539.281189 708.162720,548.983276 717.824707,556.625549 
M765.108459,386.625427 
	C764.218323,387.376434 763.370605,388.186462 762.427307,388.863373 
	C761.265991,389.696747 760.146179,391.242645 758.517639,390.156036 
	C757.004028,389.146057 756.640259,387.310394 756.982788,385.671173 
	C757.378235,383.778564 758.271057,381.989868 758.996399,380.024658 
	C755.811218,376.357971 751.698486,375.303467 747.306396,376.733643 
	C742.962158,378.148346 742.325378,382.300690 742.273743,386.170471 
	C742.153931,395.149872 742.192627,404.137817 742.485291,413.111938 
	C742.560974,415.433075 742.778625,418.042572 744.310486,420.014008 
	C746.626892,420.030823 747.932251,418.660187 749.176025,417.349213 
	C756.967346,409.136810 765.376099,401.618042 774.576965,395.031311 
	C777.643860,392.835785 779.972839,390.106812 781.905457,386.984711 
	C782.909180,385.363129 784.685852,383.587524 783.038635,381.592743 
	C781.614624,379.868286 779.486267,379.306641 777.156616,379.582428 
	C772.369873,380.149078 769.167664,383.418640 765.108459,386.625427 
M727.232422,521.460999 
	C727.232422,524.909302 727.232422,528.357544 727.232422,531.805847 
	C732.332703,505.571045 746.435669,482.773712 756.434387,457.516388 
	C752.055969,458.277649 749.966309,460.296448 747.660400,461.808411 
	C742.219788,465.375824 736.572021,468.490387 730.495544,470.848175 
	C722.240234,474.051392 722.265808,474.094086 724.713806,482.295074 
	C724.996704,483.242889 725.166138,484.229614 725.325073,485.208557 
	C727.222351,496.894928 727.366028,508.677673 727.232422,521.460999 
M530.650146,515.680115 
	C533.462952,515.466431 536.275024,515.241211 539.088867,515.042664 
	C541.393066,514.880066 543.978088,514.096008 545.829285,515.807373 
	C548.441162,518.222046 550.985535,517.531128 553.670898,516.404114 
	C555.516357,515.629578 557.323242,514.831360 559.363220,514.653076 
	C567.534546,513.939026 575.326355,512.151917 583.982666,513.229614 
	C595.683716,514.686462 607.762085,511.484253 619.756714,511.494293 
	C620.319031,511.494751 620.881836,510.942993 621.962158,510.377319 
	C619.909851,507.137207 620.724243,501.208221 615.030273,502.158783 
	C598.590881,504.903290 582.061401,506.406677 565.443115,506.743317 
	C559.037048,506.873108 552.380432,509.969666 545.930176,505.724945 
	C540.378357,512.319824 532.561646,509.373077 525.638306,509.988220 
	C524.965088,515.169617 524.965088,515.169617 530.650146,515.680115 
M480.160645,384.599426 
	C481.883301,386.891022 484.488159,385.319580 486.581940,386.062775 
	C490.128876,387.321777 491.398834,385.573334 492.515839,382.274323 
	C495.148834,374.497925 494.557159,366.504333 494.948914,358.565308 
	C495.035339,356.814453 494.687805,355.074036 492.946167,354.323853 
	C488.691406,352.491211 484.919128,349.792999 480.795776,347.316956 
	C479.845276,348.705383 479.186523,349.847168 478.356995,350.847290 
	C475.343506,354.480591 475.155121,357.491760 479.279846,360.747498 
	C482.347961,363.169220 483.421478,366.860596 483.474487,370.995911 
	C483.534698,375.693390 481.800873,379.751984 480.160645,384.599426 
M752.394958,509.889282 
	C742.415527,526.437805 737.358887,541.338257 738.106323,552.853638 
	C749.399719,529.728394 763.810608,508.985199 774.211060,486.013306 
	C764.805908,491.851074 759.156311,500.894257 752.394958,509.889282 
M585.121216,338.414520 
	C586.822998,341.820129 590.236877,343.939728 591.492065,347.822449 
	C593.718384,354.708893 594.250977,361.430969 591.825012,368.336365 
	C591.252441,369.966187 590.260803,372.207184 592.667236,373.080505 
	C594.704895,373.820007 596.557312,372.665955 597.670776,370.759705 
	C598.254272,369.760651 598.735291,368.679291 599.106750,367.582336 
	C601.728882,359.839844 600.220764,352.954071 594.940308,346.730957 
	C588.617920,339.279877 586.621826,330.505188 587.576538,320.951324 
	C588.032288,316.390656 589.388672,311.895721 588.347351,307.154602 
	C588.088806,310.404022 587.650757,313.498810 584.245667,315.080811 
	C580.045532,317.032227 579.057312,320.535187 579.101135,324.932068 
	C579.153076,330.147522 581.358459,334.176971 585.121216,338.414520 
M715.992371,475.213318 
	C713.163696,475.787262 714.371582,478.076935 714.307983,479.607758 
	C713.864746,490.277222 714.964417,500.853973 716.480408,511.398804 
	C717.753113,520.250854 719.439575,528.996887 723.074158,538.658508 
	C723.745667,522.979675 723.899231,508.645294 722.570251,494.321350 
	C721.948425,487.619507 720.445679,481.199371 715.992371,475.213318 
M520.965881,472.599762 
	C520.172974,473.009674 519.597839,473.653259 519.607971,474.540283 
	C519.680420,480.877594 519.211792,487.137085 517.459961,493.274414 
	C517.079224,494.608154 517.499939,496.283630 519.034607,496.519562 
	C523.919006,497.270599 528.901794,498.947083 533.867126,496.304138 
	C531.511414,492.213867 527.339844,490.981659 523.248474,488.189301 
	C530.044250,484.742950 534.109497,490.620300 539.437073,491.124725 
	C539.399170,486.695404 536.262451,484.786133 533.433838,483.057281 
	C534.035889,480.263824 536.774414,481.424133 538.121094,479.588104 
	C534.424561,473.111816 528.546631,471.679596 520.965881,472.599762 
M768.014771,518.491638 
	C770.858887,512.220337 772.909851,505.741425 772.835266,498.601624 
	C760.291077,520.055786 747.746826,541.509888 735.202576,562.964050 
	C750.922119,551.755737 758.182922,534.659180 768.014771,518.491638 
M468.054138,210.455368 
	C467.050964,213.086914 466.177002,215.783875 464.310272,217.984711 
	C460.962860,221.931122 459.513458,226.509750 458.996857,231.653122 
	C458.287628,238.714493 457.940094,245.903458 454.209076,252.345047 
	C453.148651,254.175842 452.923035,256.468781 455.031738,258.191254 
	C457.052704,257.598267 457.208221,255.831696 457.695740,254.304092 
	C462.027252,240.732483 466.900665,227.410873 474.798828,215.391922 
	C476.054688,213.480835 479.072876,211.402573 476.923157,208.953598 
	C475.126160,206.906448 472.242798,208.619492 469.878174,209.220749 
	C469.409729,209.339874 468.991882,209.657867 468.054138,210.455368 
M752.554077,326.952301 
	C758.416626,342.366882 763.220642,358.103882 766.068481,374.436707 
	C766.887573,374.226562 767.706604,374.016418 768.525696,373.806274 
	C766.394348,349.487244 755.059204,327.287903 751.206299,302.585297 
	C748.852417,305.174622 747.880188,307.145966 748.477478,309.681793 
	C749.772583,315.180450 751.057373,320.681549 752.554077,326.952301 
M506.505219,376.402679 
	C507.555511,375.260773 508.150787,377.394867 509.129669,376.767181 
	C511.091492,362.347931 509.295624,359.242096 498.440460,359.200470 
	C498.879517,366.629486 498.777924,374.127197 499.924194,381.429047 
	C500.864471,387.418701 504.246277,388.717407 510.182007,386.734009 
	C510.213654,384.643677 510.220551,382.533752 509.492859,380.608398 
	C508.137756,379.894379 507.712830,382.368073 506.350311,381.251892 
	C505.773346,379.829865 505.919281,378.360840 506.505219,376.402679 
M571.347839,218.979797 
	C576.175842,221.511002 577.877136,226.405548 580.021118,230.844650 
	C582.617493,236.220490 584.785706,241.803055 587.139160,247.296173 
	C587.664429,241.828247 583.903259,237.457275 583.975159,232.256638 
	C584.040894,227.503220 581.648926,223.974243 578.772888,220.731247 
	C572.334900,213.471893 563.612732,210.148239 554.644775,207.424179 
	C552.920044,206.900269 550.556213,206.953186 549.789307,208.904465 
	C548.801697,211.417053 551.461670,211.543533 552.909119,212.466995 
	C558.362610,215.946396 565.332397,214.954727 571.347839,218.979797 
M732.811096,556.994446 
	C732.764893,546.631592 732.887085,536.274414 734.219849,525.957825 
	C729.433655,537.656982 729.788147,550.128906 728.319885,562.693359 
	C733.141785,564.523438 731.942932,560.135437 732.811096,556.994446 
M556.318420,339.748138 
	C556.679443,336.998474 558.001709,334.317993 557.337952,331.027222 
	C548.313904,340.264801 555.338196,351.588043 552.157166,361.288147 
	C551.760193,362.498840 551.510986,364.333191 553.695251,365.183105 
	C555.614380,363.469147 554.627808,361.197968 554.689087,359.219177 
	C554.883118,352.957214 553.356323,346.579773 556.318420,339.748138 
M442.982910,240.515533 
	C439.405060,246.145660 437.862823,252.006973 441.009521,258.415466 
	C441.830719,253.767532 441.512665,248.885345 443.246399,244.477768 
	C445.028931,239.946274 448.858917,236.452255 450.765625,230.884689 
	C447.690247,234.169937 445.152161,236.718613 442.982910,240.515533 
M589.265137,289.156067 
	C589.265137,283.127869 589.265137,277.099670 589.265137,271.071442 
	C589.070740,271.061371 588.876404,271.051300 588.682007,271.041199 
	C588.252380,280.649231 587.822815,290.257263 587.393188,299.865295 
	C587.830444,299.882568 588.267761,299.899811 588.705078,299.917084 
	C588.862122,296.619843 589.019165,293.322601 589.265137,289.156067 
M583.721008,255.535660 
	C583.890686,250.794601 582.020691,246.645767 579.907410,242.529633 
	C582.243652,249.174515 580.894348,256.239746 582.455261,263.108612 
	C584.110229,261.003204 583.593628,258.630707 583.721008,255.535660 
M581.684204,273.461700 
	C581.555237,272.895355 581.361755,272.483337 580.812073,273.155396 
	C580.716064,273.272797 580.691162,273.463715 580.670898,273.625366 
	C580.341614,276.250580 579.966064,278.871429 579.708313,281.503754 
	C579.453674,284.103973 578.394714,286.811554 580.581238,290.047913 
	C581.718933,284.190948 581.538879,279.085724 581.684204,273.461700 
z"/>
<path fill="#000000" opacity="1.000000" stroke="none" 
	d="
M348.768127,504.375854 
	C351.838959,517.062561 354.649689,529.390442 357.750031,541.645020 
	C361.651428,557.065918 368.797852,571.228149 375.252808,585.650879 
	C376.664429,588.804871 378.090332,591.952454 379.595978,595.294678 
	C376.408844,597.049744 374.700439,596.192932 373.407196,593.387390 
	C363.866821,572.690796 354.359528,552.078003 350.240234,529.316406 
	C347.758942,515.605774 342.767609,502.808655 334.063354,491.191833 
	C320.537292,473.139740 315.377106,452.096222 316.759613,429.532715 
	C316.790161,429.033752 316.733490,428.507446 316.873871,428.040955 
	C317.548615,425.798798 316.680847,422.316620 319.887115,421.923431 
	C322.601654,421.590515 323.319275,424.728088 324.313354,426.707001 
	C327.669861,433.388733 330.834259,440.166962 334.439362,447.673004 
	C332.559387,436.117584 332.244446,425.208069 331.807861,414.285583 
	C331.080475,396.088440 333.990601,378.358246 338.891541,361.060791 
	C342.689880,347.654755 341.653107,334.917145 337.646667,322.033752 
	C332.224060,304.596375 322.485077,290.335602 307.078156,280.120422 
	C301.904572,276.690186 297.562347,272.282074 294.622253,266.689178 
	C293.888000,265.292450 292.873993,263.928680 293.206726,261.973877 
	C295.855957,262.819977 296.349884,265.170044 297.606720,266.794556 
	C300.845642,270.981049 305.174347,273.688660 309.614563,276.392029 
	C328.474304,287.874634 338.167572,305.590179 343.225922,326.390961 
	C343.651062,328.139160 344.142426,329.871277 344.966797,332.984741 
	C347.260284,323.397003 344.662292,315.666016 342.886932,307.878571 
	C339.896027,294.759430 332.691376,285.389496 320.258911,279.287903 
	C309.941223,274.224213 304.476166,264.704590 302.740417,253.063934 
	C307.235138,264.440735 315.483704,271.475952 327.784363,275.615479 
	C322.289001,259.747528 315.753571,245.442139 307.190308,230.728226 
	C304.782410,237.254562 304.669556,243.046341 301.928802,248.032608 
	C296.742798,257.467529 288.868317,258.073975 282.454834,249.399506 
	C281.096069,247.561707 279.952759,245.564590 278.687622,243.605896 
	C276.250275,244.424500 273.971741,245.570572 271.574921,245.931534 
	C258.349731,247.923248 250.825989,239.015533 254.011749,224.690552 
	C254.933853,220.544250 254.981049,217.677307 252.220627,213.921829 
	C245.819580,205.213379 247.346558,200.060165 256.863525,194.918091 
	C259.448364,193.521484 258.820251,191.366699 259.034729,189.323975 
	C259.336853,186.446426 258.002777,184.727112 255.370819,183.534790 
	C244.817398,178.753830 233.855042,175.386536 222.298691,174.474289 
	C198.429779,172.590057 175.516281,176.532578 153.680954,186.457886 
	C153.095947,186.723785 152.578827,187.139038 151.479843,187.831146 
	C153.314194,188.333466 154.627930,188.693222 156.405731,189.180069 
	C154.543564,191.621750 152.031067,192.178436 149.928528,193.269485 
	C144.898636,195.879623 140.905197,199.459885 138.329254,204.576935 
	C134.028320,213.120605 135.583984,218.575348 143.732529,224.053238 
	C154.757233,231.464630 163.330307,241.056564 165.678360,254.397598 
	C169.251419,274.698669 163.469543,292.463196 148.055954,306.393768 
	C133.584991,319.472382 116.660385,323.419983 97.938866,317.330444 
	C85.484337,313.279419 76.512680,304.454559 69.942657,293.584991 
	C64.092934,283.907104 60.171459,273.178619 55.835445,262.710327 
	C54.739250,260.063843 55.033772,257.519562 55.290791,254.980255 
	C56.123466,246.753433 54.725773,238.596344 57.995033,230.206589 
	C60.946308,222.632843 60.647259,213.740173 62.514278,205.536682 
	C63.460629,201.378540 64.763916,197.474304 66.771637,193.677795 
	C70.375877,186.862411 72.836624,179.514435 76.120071,172.518982 
	C79.018311,166.344254 82.568794,160.653229 86.092552,154.911835 
	C95.514793,139.559860 108.162315,126.867302 120.609413,114.073135 
	C124.820297,109.744843 130.182190,106.276657 135.307419,103.349739 
	C143.290100,98.790977 150.247284,92.782379 158.704346,88.750168 
	C167.251709,84.674889 175.846985,80.986717 184.824463,78.273842 
	C191.685776,76.200439 197.303986,71.289200 204.496185,70.209473 
	C214.278122,68.740959 223.857117,66.321327 233.762207,65.188492 
	C241.177124,64.340446 248.617981,63.604324 255.862701,64.169510 
	C265.212036,64.898888 274.691650,66.072952 283.030334,71.656128 
	C291.864471,77.571068 300.432892,83.356270 307.723785,91.492332 
	C316.268616,101.027702 323.622437,110.915054 329.412933,122.366348 
	C334.719086,132.859833 337.141571,144.190582 340.547821,155.164078 
	C343.662048,165.196930 346.303009,175.479355 347.148346,186.303711 
	C348.702026,206.199036 353.640656,225.678391 356.850311,245.371567 
	C358.802185,257.347229 361.697571,269.051361 364.656464,280.712952 
	C366.739960,288.924408 369.480255,297.133514 373.666382,304.768250 
	C377.082764,310.999146 379.291229,317.898285 383.458252,323.752869 
	C389.433746,332.148254 396.305969,339.505585 407.027618,341.550262 
	C409.567413,342.034637 412.278259,341.622070 416.074493,341.622070 
	C414.187531,347.534180 411.872925,352.148285 407.995850,356.127533 
	C403.235504,361.013367 397.895294,365.312866 393.587860,370.663940 
	C391.602753,373.130035 391.051758,375.124481 392.737457,378.229401 
	C397.294403,386.623047 395.885223,393.377930 389.293640,400.478607 
	C384.317535,405.839081 378.265259,410.101868 373.930969,416.125366 
	C370.900848,420.336395 369.691711,425.078217 368.643799,429.983429 
	C368.033173,432.841614 369.844086,434.303131 371.595428,435.835114 
	C373.195465,437.234680 374.010529,438.622589 372.142578,440.402374 
	C370.315613,442.143127 368.331421,442.689575 366.477325,440.647675 
	C363.206848,437.045898 362.739105,432.608978 363.190521,428.004395 
	C364.372009,415.953278 368.785706,405.542725 378.447601,397.732025 
	C380.511536,396.063507 382.148743,393.865112 384.221313,392.209747 
	C388.303284,388.949341 389.523193,385.749207 385.386566,381.485260 
	C383.134583,379.164001 383.384491,375.937653 384.174835,372.932800 
	C384.803284,370.543335 385.579193,368.192657 386.412872,365.414154 
	C381.951782,363.767639 377.662476,362.184540 373.127838,360.510925 
	C370.618469,365.116425 371.021606,370.097351 370.862549,374.725800 
	C370.433716,387.206055 365.244690,397.916626 359.438782,408.444733 
	C355.318237,415.916687 352.113068,423.738190 349.321594,431.770691 
	C347.364532,437.402222 347.199738,443.175507 347.755157,448.992798 
	C348.090088,452.500244 347.351990,455.725555 346.686249,459.149445 
	C344.134338,458.430176 343.939758,456.756500 343.960510,455.386505 
	C344.096222,446.434174 341.210724,437.536469 343.466492,428.546326 
	C343.623444,427.920776 343.660706,427.176514 343.480988,426.567993 
	C336.468109,402.820129 339.807068,380.121979 350.587463,358.264648 
	C353.080811,353.209381 352.339661,347.485382 354.563995,342.424194 
	C354.954163,341.536377 354.282471,340.502533 352.858063,339.930756 
	C349.909760,343.945618 346.586945,347.264679 345.571228,353.053772 
	C343.451996,365.132538 339.140961,376.773132 337.255005,388.986084 
	C334.536713,406.589172 335.604218,424.173523 337.493530,441.694794 
	C339.060608,456.228149 341.058228,470.740204 344.304077,485.031586 
	C345.739410,491.351227 347.191895,497.666931 348.768127,504.375854 
M119.129433,183.375610 
	C120.686012,185.112152 122.422325,186.721664 123.759209,188.613464 
	C126.060890,191.870529 128.295486,191.975632 131.028076,189.162827 
	C133.452286,186.667465 137.447159,185.031021 133.528824,180.440033 
	C128.559784,174.617950 124.029945,168.418747 119.375687,162.332489 
	C118.589447,161.304352 117.122253,160.272659 118.485321,158.264572 
	C119.621452,159.220215 120.623100,160.032242 121.591469,160.882202 
	C127.975708,166.485718 134.431229,172.011536 140.701553,177.739975 
	C144.231491,180.964844 146.970718,178.932434 150.042892,177.070297 
	C153.234406,175.135880 152.393433,172.636612 151.290451,170.145401 
	C148.382690,163.577927 146.258636,156.754654 144.365143,149.846710 
	C143.749283,147.599869 142.935287,145.369522 143.725174,142.618439 
	C145.892258,144.359924 146.510529,146.450653 147.462952,148.335510 
	C150.389786,154.127670 153.412964,159.872391 156.256607,165.704834 
	C157.970551,169.220230 160.489334,168.893600 163.321304,167.528824 
	C166.105881,166.186890 167.139481,164.368942 165.875427,161.098618 
	C160.295929,146.663513 155.063004,132.094116 149.450363,117.672279 
	C146.048508,108.931076 141.799881,108.272682 134.986755,114.974319 
	C132.791473,117.133698 132.262436,119.803864 132.322968,122.749428 
	C132.502899,131.505219 131.948883,140.270660 133.339890,149.128067 
	C132.179031,149.128067 131.590714,149.309525 131.225464,149.100754 
	C126.022110,146.126541 120.861603,143.077499 115.665474,140.090469 
	C107.853561,135.599731 105.893723,135.919876 99.655441,142.676849 
	C98.640213,143.776489 97.763931,145.003098 96.778450,146.131760 
	C94.199493,149.085419 94.265549,152.065460 96.518837,155.177567 
	C103.454796,164.757095 110.598114,174.168777 119.129433,183.375610 
M263.152313,216.385864 
	C262.289764,220.131851 259.379852,222.919830 258.588287,226.789139 
	C257.242493,233.367981 260.414062,237.592072 267.155273,237.538116 
	C271.388763,237.504242 275.385590,236.771454 278.906097,234.125656 
	C281.521210,232.160278 283.226013,233.155777 283.867706,236.187256 
	C284.107391,237.319595 284.063477,238.509430 284.261230,239.653625 
	C285.053162,244.236267 288.323151,246.445099 292.406799,247.396973 
	C296.515442,248.354706 297.874878,244.828522 299.202576,242.111191 
	C301.018616,238.394363 302.429962,234.557419 300.601654,230.182510 
	C299.159790,226.732376 300.569366,224.216309 304.130096,222.637054 
	C311.928955,219.178085 314.526337,214.432419 313.899963,205.574158 
	C313.706146,202.832901 313.287598,200.263702 310.424316,198.896698 
	C307.604034,197.550217 305.709442,199.097839 303.763214,200.803986 
	C302.653290,201.776993 301.371857,202.917648 299.779968,201.873978 
	C298.425018,200.985657 297.975189,199.382492 298.084534,197.903198 
	C298.242554,195.765945 298.917114,193.671448 299.156860,191.534637 
	C299.571289,187.841171 298.822479,184.196136 295.232574,182.646652 
	C291.385223,180.986038 289.687866,184.308807 288.035553,187.085190 
	C287.057495,188.728638 286.612976,191.221710 284.097443,191.034180 
	C281.566833,190.845490 281.575195,188.282379 280.818939,186.529724 
	C280.358643,185.463013 280.101837,184.307663 279.631012,183.246506 
	C278.620850,180.969788 277.087738,179.307465 274.344727,179.464279 
	C267.486298,179.856400 262.167358,187.891510 265.085144,194.002625 
	C266.529755,197.028290 265.910583,198.907547 263.879608,200.904663 
	C261.117798,200.899216 259.626099,197.016083 256.493835,198.973557 
	C254.583542,200.167374 252.619339,201.517258 252.537750,203.782761 
	C252.419769,207.058517 254.795471,209.103882 257.251129,210.942184 
	C259.253540,212.441162 262.743805,212.073227 263.152313,216.385864 
M232.984222,152.696808 
	C245.630066,153.179306 253.720444,145.745026 255.653320,131.866058 
	C257.819305,116.313393 254.664764,111.780113 239.295242,108.612701 
	C236.999664,108.139626 234.709381,107.813416 232.730515,106.452194 
	C230.715042,105.065811 229.685684,103.240189 230.915146,100.911270 
	C232.124313,98.620750 234.159622,99.022995 236.139160,99.809326 
	C236.910599,100.115776 237.634674,100.542053 238.407379,100.844696 
	C242.128540,102.302231 244.223557,100.676453 243.655563,96.745872 
	C243.252914,93.959602 241.341858,92.310089 238.932755,91.405670 
	C233.716461,89.447388 228.593445,89.030373 223.890900,92.940651 
	C219.880356,96.275482 218.422195,100.540504 219.812500,105.412865 
	C221.455078,111.169289 224.839920,115.556328 231.241806,116.612015 
	C233.370148,116.962967 235.550629,117.009636 237.670944,117.395164 
	C244.994370,118.726738 247.626572,123.191833 245.382645,130.321014 
	C243.605392,135.967529 237.791397,139.275864 231.451523,137.892181 
	C227.944153,137.126709 224.563553,135.780319 221.145279,134.701935 
	C218.265015,142.684433 219.796249,147.111404 226.568558,150.503967 
	C228.336884,151.389801 230.290833,151.905045 232.984222,152.696808 
M276.679382,133.334839 
	C276.863495,131.849197 276.944885,130.342102 277.250061,128.881775 
	C278.363922,123.551567 281.021637,122.450645 285.769196,125.284447 
	C291.963226,128.981659 294.078278,142.276962 289.377441,147.776291 
	C287.381104,148.182526 287.015350,145.582794 285.284851,145.522430 
	C281.605988,151.551804 287.581940,166.126892 294.247894,167.570724 
	C295.720764,167.889725 297.118378,167.603302 297.573212,166.141464 
	C298.462494,163.283264 300.348816,160.528992 299.326935,157.195358 
	C292.994751,159.032761 291.578796,157.806000 293.364624,151.780273 
	C296.368530,141.644653 296.380707,131.752731 291.535431,122.211617 
	C288.805206,116.835419 285.488342,111.802094 279.647217,109.218880 
	C275.148956,107.229561 271.157806,108.192421 268.972351,112.568153 
	C261.885773,126.757019 260.389221,141.120087 268.755005,155.456528 
	C270.405029,158.284195 272.573212,160.545746 275.845184,161.371033 
	C277.541046,161.798798 279.645294,163.179352 280.968414,161.396072 
	C282.429596,159.426682 280.762329,157.483978 279.388824,156.164642 
	C275.874878,152.789261 274.284668,148.791855 274.886261,144.016464 
	C275.300659,140.726608 276.027283,137.476074 276.679382,133.334839 
M204.010956,138.485382 
	C203.863159,131.508987 203.872192,124.523521 203.469437,117.561874 
	C203.352600,115.542442 203.908844,112.121323 200.593445,112.119209 
	C197.158615,112.117027 195.322571,114.537712 195.299774,118.106392 
	C195.271118,122.593430 195.248993,127.081635 195.119675,131.566330 
	C195.070312,133.278214 195.651672,135.309357 193.303635,136.442505 
	C192.794815,136.197708 192.127563,136.023071 191.648514,135.623047 
	C187.824417,132.429825 184.005310,129.229156 180.247284,125.958809 
	C177.700867,123.742844 175.025131,124.406151 173.121124,126.330147 
	C171.311142,128.159149 171.447556,130.328003 173.350037,132.894684 
	C177.733078,138.807938 183.367020,143.070541 189.527847,146.718475 
	C193.417923,149.021851 194.274017,151.809952 192.524994,155.547882 
	C190.895218,156.441269 189.701035,155.248901 188.382309,155.389999 
	C184.992065,155.752747 182.480682,158.595032 183.238831,161.280518 
	C184.876343,167.080826 191.912155,169.351273 196.377045,165.359055 
	C198.846725,163.150833 200.657410,160.456848 201.849548,157.194290 
	C203.967377,151.398376 203.747681,145.436996 204.010956,138.485382 
M315.300720,181.168182 
	C317.451843,182.048538 319.642853,182.843582 321.745544,183.827484 
	C325.803894,185.726471 327.247864,183.774139 327.493988,180.035400 
	C327.756622,176.046814 327.288055,172.127609 326.379028,168.298218 
	C319.448059,167.914627 316.856232,165.981979 316.833771,160.726746 
	C316.787659,149.935349 316.589478,139.129349 317.876984,128.378769 
	C318.598877,122.351288 315.845520,119.653069 308.925171,119.870476 
	C307.912292,123.065819 308.747620,126.359512 308.625153,129.614746 
	C308.159698,141.988052 309.734161,154.574356 305.026367,166.539215 
	C303.119720,171.385010 305.257812,174.960724 308.930695,177.795242 
	C310.612274,179.093018 312.709778,179.851868 315.300720,181.168182 
M344.608124,396.892090 
	C344.537231,397.538330 344.466339,398.184601 344.228577,400.351959 
	C349.903534,384.781799 356.439545,371.332825 365.299103,359.083374 
	C366.227325,357.800049 367.272308,356.128296 365.715485,354.560272 
	C363.417419,352.245667 361.550110,349.443054 357.998535,347.412506 
	C351.078949,363.245117 345.340729,378.998871 344.608124,396.892090 
M327.876068,449.693634 
	C330.506653,457.414062 333.053284,465.170197 337.458191,472.971039 
	C336.229401,460.688049 330.911438,450.791595 325.144653,441.018860 
	C325.957520,443.669586 326.770386,446.320312 327.876068,449.693634 
M326.586823,460.795502 
	C325.727173,457.760254 324.837921,454.733032 324.016510,451.687469 
	C323.249847,448.844849 322.555267,445.982758 321.828979,443.129242 
	C322.619965,459.029938 328.681915,472.840912 338.085999,485.296356 
	C333.635651,477.732758 329.624176,469.931732 326.586823,460.795502 
M358.669678,379.151184 
	C355.488617,384.541779 353.061676,390.224182 351.746094,396.346497 
	C355.525482,388.361481 360.478455,380.944244 363.464569,371.993500 
	C360.860168,373.908600 360.406372,376.512390 358.669678,379.151184 
M364.648438,385.097931 
	C364.557617,384.967529 364.488251,384.760773 364.370178,384.727570 
	C364.245483,384.692535 363.990295,384.780060 363.935394,384.887360 
	C360.885773,390.848022 358.107941,396.921051 356.233917,403.368744 
	C359.152222,397.492096 363.195435,392.153107 364.648438,385.097931 
z"/>
<path fill="#000000" opacity="1.000000" stroke="none" 
	d="
M242.653076,584.270935 
	C231.844452,568.148560 227.116928,550.789490 227.358261,531.664185 
	C227.482452,521.821411 227.459717,511.646149 223.012878,502.309479 
	C222.588058,501.417450 222.300323,500.432159 222.119949,499.458496 
	C221.868454,498.101074 221.968231,496.667053 223.233093,495.861511 
	C224.725250,494.911194 225.766235,496.066345 226.600540,497.091003 
	C233.726349,505.843048 242.625336,513.164368 247.882629,523.428223 
	C248.097794,523.848267 248.497253,524.173828 249.092194,524.875061 
	C250.983734,518.801025 250.669724,512.864197 250.680389,506.960754 
	C250.683044,505.490417 249.878143,504.476654 248.807053,503.598511 
	C234.666672,492.006012 226.604752,475.465851 214.892059,461.890076 
	C208.913498,454.960510 208.792023,432.913544 215.006927,424.685486 
	C221.596817,415.960999 230.723724,415.146210 239.688431,423.085510 
	C242.427246,425.511047 245.267120,427.822479 247.754456,429.927032 
	C248.674683,425.262024 249.765778,419.432983 252.509125,414.130127 
	C254.475983,410.328156 256.876740,406.472870 261.690491,406.854919 
	C266.429535,407.231079 269.809784,410.117279 271.601807,414.823547 
	C276.720520,428.266388 276.393585,441.777496 272.796844,455.487213 
	C267.387054,476.107788 263.643616,496.981262 261.841492,518.294067 
	C260.663483,532.225708 262.654175,545.836243 263.191101,560.152466 
	C268.075439,536.090698 283.935303,516.788696 287.085876,493.333588 
	C289.379425,493.091492 290.107330,493.601746 290.399902,494.386505 
	C297.276733,512.830688 303.363373,531.474060 300.281952,551.575500 
	C298.614319,562.454346 292.981873,571.860901 287.844543,581.377625 
	C285.711823,585.328430 283.336426,589.149719 281.020813,592.999573 
	C279.973602,594.740601 278.746155,596.105164 276.407227,596.348267 
	C268.799683,597.138794 267.579620,595.900513 269.080994,588.361084 
	C271.313904,577.147644 276.011139,566.852173 280.959442,556.655212 
	C285.043915,548.238342 288.099731,539.510986 290.139496,530.338623 
	C291.587708,523.826233 289.455231,517.968384 288.116333,510.714722 
	C282.459686,527.343262 273.517273,541.518616 268.803070,557.449402 
	C265.922028,567.185303 267.514618,577.305725 267.386322,587.266357 
	C267.360718,589.254456 267.388062,591.244812 267.301392,593.230164 
	C267.241760,594.594788 267.038391,596.036072 265.193146,596.010254 
	C263.512756,595.986633 262.981781,594.713928 262.792419,593.316833 
	C261.764923,585.735718 260.538971,578.172180 259.816437,570.561279 
	C258.670197,558.487915 257.445984,546.396057 257.042236,534.285767 
	C256.660492,522.835938 258.224365,511.423859 259.499695,499.943329 
	C258.385864,502.327240 257.758026,504.978821 254.725174,505.821686 
	C253.445770,506.177246 253.343246,507.619049 253.459564,508.810913 
	C255.082794,525.442261 252.962112,542.043945 253.002121,558.668091 
	C253.032410,571.248169 254.681381,583.459595 258.382141,595.416382 
	C255.219330,597.151062 253.062546,595.946045 250.885361,594.109619 
	C247.646957,591.378174 245.798798,587.524170 242.653076,584.270935 
M283.687012,562.120300 
	C279.793549,571.323914 274.659119,580.090271 273.545441,590.572510 
	C289.087311,572.424316 297.514221,548.337891 294.389038,531.679260 
	C292.654144,542.050720 288.632629,551.848999 283.687012,562.120300 
M245.825363,538.714783 
	C246.020859,530.804199 243.095383,524.334717 236.012909,518.108887 
	C241.860794,534.508972 241.214310,550.655640 245.166718,565.986633 
	C246.185074,557.198730 246.089783,548.434326 245.825363,538.714783 
M237.887207,550.425293 
	C236.000687,539.890015 236.041626,528.961914 231.502228,518.964417 
	C233.296127,534.176392 231.352493,550.047119 239.589783,564.123230 
	C239.065414,559.849243 238.541061,555.575317 237.887207,550.425293 
M223.161682,439.416931 
	C223.399033,440.991943 223.500549,442.638245 225.486710,443.814697 
	C225.730377,440.697388 227.989120,437.986023 225.481033,435.156006 
	C223.449265,435.717865 223.313049,437.233978 223.161682,439.416931 
z"/>
<path fill="#000000" opacity="1.000000" stroke="none" 
	d="
M278.728119,348.379944 
	C278.240021,341.653290 279.442139,335.642822 282.797241,330.279449 
	C285.503601,325.953186 288.889893,322.342651 294.775787,322.743652 
	C300.281464,323.118744 303.660583,326.480194 305.761627,330.985260 
	C307.855865,335.475769 309.129608,340.244537 309.387238,345.377136 
	C310.416626,365.882965 308.252686,385.811310 300.749817,405.115570 
	C296.542694,415.940277 293.603516,416.664734 285.661102,407.791565 
	C278.221710,399.480377 272.570496,389.802460 265.220642,381.395111 
	C261.516602,377.158173 257.010559,373.715363 253.908737,368.845520 
	C248.621689,360.544891 248.274841,350.609497 253.638367,342.573364 
	C256.711853,337.968414 260.808441,337.329803 265.633514,340.006775 
	C270.979279,342.972626 274.870453,347.264862 278.726929,352.115814 
	C278.726929,351.004669 278.726929,349.893524 278.728119,348.379944 
M277.128601,362.373871 
	C273.442383,356.865936 270.201904,351.037201 263.677216,348.077454 
	C260.149872,346.477386 257.933441,347.217590 256.396362,350.552429 
	C254.852631,353.901794 254.389023,357.367310 256.662048,360.528351 
	C258.692749,363.352356 260.926941,366.063843 263.325500,368.582977 
	C269.748138,375.328491 275.802643,382.329132 281.075806,390.051941 
	C284.565765,395.163147 287.885620,400.670563 293.817413,403.559937 
	C294.462769,402.969574 294.910889,402.698151 295.159576,402.301605 
	C295.598969,401.600952 295.963593,400.843353 296.278839,400.076447 
	C303.601624,382.263489 304.890930,363.613281 303.640930,344.688568 
	C303.162811,337.449677 299.654572,333.418030 294.743591,333.216675 
	C289.542450,333.003418 285.885284,336.902069 284.567719,344.150269 
	C284.361023,345.287323 284.392914,346.468781 284.328461,347.630493 
	C283.963837,354.202545 285.806854,360.482086 286.883362,366.863098 
	C287.314941,369.421234 288.147125,372.040100 285.931427,374.231171 
	C283.557709,373.809326 282.107605,372.463013 281.351257,370.523712 
	C280.318512,367.875641 279.207642,365.292297 277.128601,362.373871 
z"/>
<path fill="#000000" opacity="1.000000" stroke="none" 
	d="
M702.779785,380.736359 
	C699.826294,379.357849 698.576050,382.163361 696.527039,382.895599 
	C691.483826,384.697784 688.145447,383.370361 686.515442,378.241852 
	C685.902222,376.312408 685.532471,374.267181 686.062378,372.331696 
	C687.480835,367.151703 689.094116,362.393250 685.721313,356.921417 
	C683.698425,353.639435 686.913696,349.591034 691.784363,348.348846 
	C694.545776,347.644653 696.076599,346.611237 696.720276,343.711090 
	C697.541077,340.012634 699.376282,336.390808 703.621887,336.195587 
	C707.832458,336.001984 711.624329,338.202972 713.193970,342.203308 
	C714.863708,346.458923 716.937683,347.711090 721.622498,346.922852 
	C727.725586,345.895935 731.629700,350.226257 731.242554,356.522705 
	C730.916931,361.819550 728.321228,366.036560 724.272400,369.273376 
	C721.966614,371.116699 720.894470,373.189117 721.192749,376.131439 
	C721.323975,377.425323 721.176636,378.822906 720.817261,380.076385 
	C719.869202,383.383270 719.456299,387.429504 715.162659,388.058624 
	C711.160522,388.645081 707.675049,387.050140 705.161926,383.698669 
	C704.463989,382.768005 703.715332,381.875336 702.779785,380.736359 
M703.094360,344.581024 
	C698.992004,347.038208 703.452698,352.855347 699.206787,355.379883 
	C694.319824,351.145996 693.150757,351.153625 690.780151,355.206940 
	C697.765137,361.227051 697.756226,361.222168 693.035950,369.851898 
	C692.266785,371.258087 691.075684,372.670929 692.549500,374.414581 
	C694.922668,374.927673 696.653198,373.900360 698.228638,372.217285 
	C702.751648,367.384979 702.768921,367.409576 706.402161,373.126465 
	C706.846680,373.825958 707.345459,374.500031 707.887268,375.126923 
	C709.678589,377.199493 711.913879,379.411835 714.622986,377.941406 
	C717.053101,376.622467 715.882385,373.832153 715.207520,371.591309 
	C713.985046,367.531555 714.691101,364.642151 719.244080,362.981812 
	C722.097046,361.941437 724.669128,359.864563 725.163696,356.324890 
	C719.309570,354.362000 713.987671,357.265686 712.201965,363.306244 
	C711.173279,366.786041 709.203674,368.965942 705.353699,368.207214 
	C702.284302,367.602325 700.638428,363.463562 701.800537,359.998901 
	C702.776489,357.089020 705.503052,356.505859 707.811584,356.289124 
	C711.526672,355.940308 711.832092,353.451721 711.372925,351.071777 
	C710.617065,347.154266 708.935425,343.633514 703.094360,344.581024 
z"/>
<path fill="#000000" opacity="1.000000" stroke="none" 
	d="
M642.398010,266.066589 
	C641.397766,263.009491 641.933838,260.450134 642.962158,257.922211 
	C644.555115,254.006149 647.140259,252.049515 651.555054,253.245300 
	C655.228943,254.240417 657.652649,253.559235 657.942261,248.974228 
	C658.520569,239.819534 661.065125,237.417633 670.134949,236.709091 
	C677.438843,236.138519 682.330688,239.651428 683.902710,247.453735 
	C684.565796,250.744598 685.489807,252.887466 688.868958,253.933853 
	C691.081360,254.618958 691.856506,256.753448 692.293823,259.044159 
	C693.841370,267.149963 693.046936,274.344696 685.229065,279.123413 
	C684.178406,279.765625 683.440491,280.722504 683.452942,281.969818 
	C683.497925,286.459839 680.693726,289.284241 677.726196,292.037872 
	C672.144043,297.217712 668.159302,296.843445 663.669250,290.721741 
	C662.899048,289.671600 662.094116,288.646851 661.296021,287.598267 
	C658.236877,288.312164 656.130981,291.037872 652.764709,290.356812 
	C647.212830,289.233521 643.848083,284.304840 645.375854,277.752838 
	C646.435974,273.206757 646.554443,269.457611 642.398010,266.066589 
M675.996582,243.284500 
	C667.860046,240.808472 661.890503,243.517700 661.417847,249.900879 
	C660.793396,258.334595 660.796204,258.322174 652.381348,256.424469 
	C651.586365,256.245178 650.718994,256.260010 649.899902,256.338257 
	C647.336670,256.583130 646.268433,258.449768 645.557373,260.589355 
	C645.010681,262.234192 645.585205,263.445862 647.089111,264.366486 
	C653.264038,268.146606 653.247559,268.164642 650.532227,274.759674 
	C650.215759,275.528290 649.934998,276.317474 649.713684,277.118164 
	C649.158203,279.127594 648.935608,281.136017 650.874756,282.567841 
	C652.585266,283.830841 654.688354,284.462311 656.497009,283.251495 
	C661.028687,280.217804 663.564331,281.515045 665.620483,286.299896 
	C666.702209,288.817291 669.024414,291.502045 672.310547,289.855225 
	C675.644165,288.184601 680.181335,285.934967 679.305542,281.755463 
	C678.204041,276.498657 680.171631,274.363037 684.340576,272.648743 
	C685.380066,272.221344 686.358398,271.411896 687.106995,270.553253 
	C689.576660,267.720825 689.161987,264.266022 688.505798,261.033997 
	C687.899963,258.050049 685.365845,258.944336 683.200134,259.054260 
	C680.271423,259.202850 680.038818,257.038422 680.449951,254.926224 
	C681.330750,250.401703 679.967102,246.733948 675.996582,243.284500 
z"/>
<path fill="#000000" opacity="1.000000" stroke="none" 
	d="
M382.144684,578.940247 
	C384.200317,584.740051 387.659546,589.575439 388.921539,595.433838 
	C385.500153,597.088745 384.619965,594.644653 383.699951,592.574341 
	C376.951538,577.388245 370.709564,561.989929 364.325348,546.649414 
	C358.229156,532.000977 353.536987,517.013855 350.500946,501.476044 
	C350.183533,499.851685 349.962280,498.197876 349.854187,496.547424 
	C349.791443,495.588806 350.043335,494.609558 350.907623,493.449280 
	C356.518127,507.376129 358.513367,522.425842 364.591705,536.178833 
	C370.766815,550.150696 376.230988,564.436768 382.144684,578.940247 
z"/>
<path fill="#000000" opacity="1.000000" stroke="none" 
	d="
M441.426819,170.244690 
	C441.054260,172.198303 441.676788,174.031662 439.623444,175.475800 
	C437.247345,170.524506 437.389679,165.213104 436.928894,160.166000 
	C436.532593,155.824936 436.094482,152.232056 430.460602,151.753357 
	C439.439056,143.660248 435.091888,132.096863 439.934937,122.986427 
	C440.309479,126.350082 440.754028,129.707916 441.034332,133.079407 
	C441.226959,135.396118 441.167847,137.732742 441.262085,140.058807 
	C441.660187,149.886871 443.165741,151.887314 452.057739,154.456207 
	C452.003937,154.753601 451.947693,155.307800 451.881714,155.308960 
	C441.877533,155.485321 443.026947,163.626999 441.426819,170.244690 
z"/>
<path fill="#000000" opacity="1.000000" stroke="none" 
	d="
M582.347290,120.614243 
	C584.722595,122.111572 587.392944,122.467819 589.297668,125.389450 
	C581.037964,129.408875 580.816223,138.663803 576.128174,147.076263 
	C573.714722,138.213379 574.682495,129.508270 564.823792,124.784042 
	C572.497742,121.941971 577.988281,118.793602 576.694641,109.948875 
	C580.793213,113.322510 579.658997,117.712692 582.347290,120.614243 
z"/>
<path fill="#000000" opacity="1.000000" stroke="none" 
	d="
M560.221313,148.908508 
	C561.180237,145.351883 559.961060,141.934387 561.389771,138.743454 
	C563.809021,138.717407 564.013062,140.720581 564.370178,142.118118 
	C565.790771,147.676804 567.791260,152.368759 575.299744,150.572311 
	C574.515442,153.896545 572.053040,153.781693 570.452148,153.998688 
	C566.596924,154.521179 565.555542,156.922775 565.349365,160.177124 
	C565.153809,163.264999 565.184875,166.387756 563.599304,169.425735 
	C561.138000,167.254807 561.594360,164.567078 561.785400,162.244598 
	C562.137268,157.967865 560.691101,155.610931 556.257751,155.324707 
	C554.787537,155.229782 553.276306,154.980652 552.561035,153.246826 
	C554.040100,150.008514 558.264282,151.884705 560.221313,148.908508 
z"/>
<path fill="#000000" opacity="1.000000" stroke="none" 
	d="
M445.676575,180.176941 
	C453.625397,178.362320 451.872986,170.986771 454.404510,165.791321 
	C457.045502,168.304977 457.095917,171.633194 457.665222,174.448364 
	C458.464874,178.402679 460.019806,180.412292 464.217438,179.802582 
	C464.757568,179.724136 465.371277,180.152420 466.330536,180.472717 
	C464.055664,184.095688 459.465851,182.869858 457.310272,185.450272 
	C455.072540,188.128998 456.895538,192.288773 454.687408,195.256516 
	C453.342133,194.369629 453.019440,193.140579 453.043427,192.046524 
	C453.153931,187.007019 452.523987,182.739090 445.964508,182.669083 
	C444.833099,182.657013 444.583618,181.411423 445.676575,180.176941 
z"/>
<path fill="#000000" opacity="1.000000" stroke="none" 
	d="
M766.268616,234.213760 
	C772.049988,232.682632 776.052246,235.478409 774.965088,239.947464 
	C774.400818,242.266968 773.224487,244.321823 770.678162,245.005035 
	C768.707275,245.533890 766.866760,244.874237 765.894226,243.190521 
	C764.258911,240.359619 763.514099,237.334030 766.268616,234.213760 
z"/>
<path fill="#000000" opacity="1.000000" stroke="none" 
	d="
M521.087646,280.542419 
	C520.399231,291.435699 514.816345,299.622345 508.375885,307.373291 
	C506.763702,309.313568 506.670502,309.236115 505.797516,312.061798 
	C509.345825,311.119812 510.120514,307.444824 512.696716,305.852661 
	C514.848999,304.522522 516.804443,301.701477 519.650330,304.215851 
	C522.712280,306.921051 525.313599,310.415161 524.324097,314.596619 
	C523.515747,318.012634 520.552979,317.507050 518.521606,315.326416 
	C516.617126,313.281891 515.110962,313.286285 512.985718,314.899872 
	C506.745514,319.637970 504.386963,319.711090 500.931427,315.598328 
	C497.479004,311.489288 498.150940,304.918274 502.561523,300.708374 
	C505.571716,297.835114 508.969452,295.323944 511.707733,292.221741 
	C514.653931,288.884125 517.418518,285.305298 518.115906,280.576538 
	C518.467834,278.190491 519.649475,277.556549 521.087646,280.542419 
z"/>
<path fill="#000000" opacity="1.000000" stroke="none" 
	d="
M540.186890,272.793060 
	C544.701599,271.211578 548.837280,272.322449 552.820618,273.118988 
	C556.052856,273.765289 558.957153,275.270599 562.347412,273.440186 
	C564.249512,272.413239 565.282837,274.558685 566.219055,275.750946 
	C567.678040,277.608887 567.925110,280.089417 566.291260,281.708801 
	C564.398071,283.585144 563.703857,285.654755 562.982239,288.077728 
	C562.171631,290.799835 560.150513,291.538940 557.656372,289.342163 
	C547.671936,280.548248 543.843018,280.146088 531.968689,286.496307 
	C531.246826,286.882324 530.567810,287.400787 529.679321,286.991638 
	C527.288208,279.829407 530.937561,277.204834 540.186890,272.793060 
z"/>
<path fill="#000000" opacity="1.000000" stroke="none" 
	d="
M532.583008,328.531921 
	C530.150085,333.975494 527.828857,339.200714 521.688599,341.524475 
	C514.645630,344.189789 511.342926,336.983307 505.281067,336.671814 
	C512.841919,327.525635 521.417236,323.861420 532.583008,328.531921 
z"/>
<path fill="#000000" opacity="1.000000" stroke="none" 
	d="
M468.662415,275.239746 
	C473.571960,278.436768 478.221252,279.121124 483.681183,277.439941 
	C489.314270,275.705383 494.463379,278.131470 499.027771,281.542572 
	C501.584015,283.452942 500.046661,286.431244 501.100983,288.652374 
	C499.638733,289.541290 498.879822,288.648346 498.131683,288.103180 
	C492.801117,284.218994 487.422333,283.562164 481.345367,286.745117 
	C475.976227,289.557343 470.715363,286.748688 468.554169,280.672638 
	C468.119263,279.449860 467.201233,278.407471 466.608673,277.230225 
	C465.675110,275.375549 466.434814,274.764587 468.662415,275.239746 
z"/>
<path fill="#000000" opacity="1.000000" stroke="none" 
	d="
M463.583130,271.374390 
	C462.387451,272.358978 462.077637,274.024078 460.366394,273.761688 
	C461.284424,268.339020 471.819672,259.710663 477.213684,259.878632 
	C478.733551,259.925995 479.860260,260.413116 479.977020,262.045837 
	C480.100952,263.779236 478.800140,264.289764 477.418274,264.471588 
	C472.127899,265.167725 467.739410,267.667572 463.583130,271.374390 
z"/>
<path fill="#000000" opacity="1.000000" stroke="none" 
	d="
M560.033569,257.945038 
	C558.100159,257.031738 556.476624,256.307800 554.798462,255.559509 
	C557.484009,253.166779 561.738525,254.143372 568.109314,258.336548 
	C570.751587,260.075653 572.170898,262.025513 570.075745,265.658173 
	C566.718567,262.975220 564.050598,259.824158 560.033569,257.945038 
z"/>
<path fill="#000000" opacity="1.000000" stroke="none" 
	d="
M526.454102,348.590515 
	C522.955139,352.960205 520.391602,350.406799 516.365723,347.551422 
	C520.769531,347.043335 523.732422,345.708862 526.454102,348.590515 
z"/>
<path fill="#000000" opacity="1.000000" stroke="none" 
	d="
M277.964050,196.965210 
	C289.127960,200.033493 293.059174,210.055420 287.187134,219.498901 
	C283.198212,225.913849 275.973358,225.793533 272.693298,218.967300 
	C269.750732,212.843445 269.618866,206.463150 273.013916,200.304947 
	C274.009064,198.499908 275.240265,196.962860 277.964050,196.965210 
M273.986542,212.042816 
	C273.424622,214.798492 274.721680,216.625000 277.149841,217.501526 
	C279.203247,218.242767 281.027679,217.598846 282.361908,215.681610 
	C283.690002,213.773163 284.232697,211.752991 283.409637,209.567047 
	C282.590302,207.391022 280.441681,206.710678 278.542664,206.633987 
	C275.595978,206.514969 275.202362,209.373138 273.986542,212.042816 
z"/>
<path fill="#000000" opacity="1.000000" stroke="none" 
	d="
M661.058594,271.700684 
	C657.417603,267.237549 658.539185,263.481842 661.865051,259.883820 
	C663.567688,258.041870 665.600281,256.814789 668.038086,257.682312 
	C670.760437,258.651123 672.197083,260.876526 672.266785,263.842529 
	C672.349915,267.380280 671.255615,270.397186 668.210571,272.441071 
	C665.827637,274.040558 663.511902,273.752136 661.058594,271.700684 
z"/>
</svg>